<svg width="118" height="31" viewBox="0 0 118 31" fill="none" xmlns="http://www.w3.org/2000/svg">
<path d="M42.9396 0.000401457C40.9881 0.000401457 39.408 1.56898 39.408 3.50634V27.0424C39.408 28.9773 40.9881 30.5483 42.9396 30.5483C44.8912 30.5483 46.4713 28.9797 46.4713 27.0424V3.5088C46.4713 1.57144 44.8912 0.000401457 42.9396 0.000401457Z" fill="black"/>
<path d="M58.562 23.4627H52.6429C50.6914 23.4627 49.1113 25.0312 49.1113 26.9686C49.1113 28.906 50.6914 30.4746 52.6429 30.4746H58.562C60.5136 30.4746 62.0936 28.906 62.0936 26.9686C62.0936 25.0312 60.5136 23.4627 58.562 23.4627Z" fill="black"/>
<path d="M74.5633 30.5483C72.6117 30.5483 71.0317 28.9797 71.0317 27.0424V3.5088C71.0317 1.57144 72.6117 0.000401457 74.5633 0.000401457C76.5149 0.000401457 78.0949 1.56898 78.0949 3.50634V27.0424C78.0949 28.9773 76.5149 30.5483 74.5633 30.5483Z" fill="black"/>
<path d="M96.6917 14.5233C94.9407 13.6701 92.8257 14.388 91.9663 16.1263L87.3945 25.4984C86.5352 27.2366 87.2583 29.3362 89.0093 30.1894C89.5096 30.4328 90.0396 30.5483 90.5621 30.5483C91.8673 30.5483 93.1229 29.8279 93.7346 28.5864L98.3064 19.2142C99.1658 17.476 98.4426 15.3764 96.6917 14.5233Z" fill="black"/>
<path d="M117.141 25.4984L105.513 1.96235C104.654 0.224133 102.539 -0.493774 100.788 0.359355C99.037 1.21248 98.3139 3.31211 99.1732 5.05033L110.801 28.5864C111.415 29.8279 112.668 30.5483 113.973 30.5483C114.496 30.5483 115.026 30.4328 115.526 30.1894C117.277 29.3362 118 27.2366 117.141 25.4984Z" fill="black"/>
<path d="M9.65913 14.5257C7.90818 13.6726 5.79316 14.3905 4.93378 16.1287L0.361988 25.5008C-0.497392 27.2391 0.225775 29.3387 1.97673 30.1918C2.477 30.4352 3.00699 30.5508 3.52955 30.5508C4.83472 30.5508 6.09036 29.8304 6.70207 28.5888L11.2739 19.2167C12.1333 17.4785 11.4101 15.3788 9.65913 14.5257Z" fill="black"/>
<path d="M30.1084 25.5008L18.4808 1.96481C17.6214 0.226591 15.5064 -0.491315 13.7554 0.361813C12.0045 1.21494 11.2813 3.31457 12.1407 5.05279L23.7683 28.5888C24.3825 29.8304 25.6357 30.5508 26.9408 30.5508C27.4634 30.5508 27.9934 30.4352 28.4937 30.1918C30.2446 29.3387 30.9678 27.2391 30.1084 25.5008Z" fill="black"/>
</svg>
