<svg width="166" height="44" viewBox="0 0 166 44" fill="none" xmlns="http://www.w3.org/2000/svg">
<path d="M60.3402 0.818924C57.5979 0.818924 55.3775 3.02314 55.3775 5.74559V38.8192C55.3775 41.5382 57.5979 43.7459 60.3402 43.7459C63.0826 43.7459 65.303 41.5417 65.303 38.8192V5.74905C65.303 3.0266 63.0826 0.818924 60.3402 0.818924Z" fill="white"/>
<path d="M82.2933 33.7889H73.9757C71.2333 33.7889 69.0129 35.9931 69.0129 38.7156C69.0129 41.438 71.2333 43.6422 73.9757 43.6422H82.2933C85.0357 43.6422 87.2561 41.438 87.2561 38.7156C87.2561 35.9931 85.0357 33.7889 82.2933 33.7889Z" fill="white"/>
<path d="M104.779 43.7459C102.036 43.7459 99.8161 41.5417 99.8161 38.8192V5.74905C99.8161 3.0266 102.036 0.818924 104.779 0.818924C107.521 0.818924 109.742 3.02314 109.742 5.74559V38.8192C109.742 41.5382 107.521 43.7459 104.779 43.7459Z" fill="white"/>
<path d="M135.874 21.2269C133.414 20.0281 130.442 21.0369 129.234 23.4795L122.81 36.6495C121.602 39.0922 122.618 42.0426 125.079 43.2415C125.782 43.5835 126.527 43.7459 127.261 43.7459C129.095 43.7459 130.86 42.7336 131.719 40.9889L138.144 27.8189C139.351 25.3763 138.335 22.4258 135.874 21.2269Z" fill="white"/>
<path d="M164.61 36.6495L148.271 3.57592C147.063 1.13332 144.091 0.124491 141.631 1.32334C139.17 2.52218 138.154 5.47266 139.362 7.91526L155.701 40.9889C156.564 42.7336 158.325 43.7459 160.159 43.7459C160.894 43.7459 161.638 43.5835 162.341 43.2415C164.802 42.0426 165.818 39.0922 164.61 36.6495Z" fill="white"/>
<path d="M13.5733 21.2304C11.1128 20.0315 8.14075 21.0404 6.93312 23.483L0.508677 36.653C-0.698952 39.0956 0.317266 42.0461 2.77777 43.2449C3.48077 43.587 4.22553 43.7493 4.95985 43.7493C6.79392 43.7493 8.55838 42.7371 9.41798 40.9923L15.8424 27.8223C17.0501 25.3797 16.0338 22.4292 13.5733 21.2304Z" fill="white"/>
<path d="M42.3093 36.653L25.9698 3.57938C24.7622 1.13677 21.7901 0.127946 19.3296 1.32679C16.8691 2.52564 15.8529 5.47611 17.0605 7.91871L33.4 40.9923C34.2631 42.7371 36.0241 43.7493 37.8582 43.7493C38.5925 43.7493 39.3372 43.587 40.0403 43.2449C42.5008 42.0461 43.517 39.0956 42.3093 36.653Z" fill="white"/>
</svg>
