<svg xmlns:inkscape="http://www.inkscape.org/namespaces/inkscape" xmlns:sodipodi="http://sodipodi.sourceforge.net/DTD/sodipodi-0.dtd" xmlns="http://www.w3.org/2000/svg" xmlns:svg="http://www.w3.org/2000/svg" id="svg1" width="677.0863341704768" height="240.10562423095706" viewBox="225.49820776661963 274.4064145385742 677.0863341704768 240.10562423095706" sodipodi:docname="LOGOALIA_POS_COLOR.eps"><defs id="defs1"></defs><g id="g1" inkscape:groupmode="layer" inkscape:label="1"><path id="path1" d="m 3571.01,3600.49 c -78.75,0 -142.59,-63.84 -142.59,-142.59 v -957.27 c 0,-78.74 63.84,-142.58 142.59,-142.58 78.75,0 142.59,63.84 142.59,142.58 v 957.27 c 0,78.75 -63.84,142.59 -142.59,142.59" style="fill:#0f1730;fill-opacity:1;fill-rule:nonzero;stroke:none" transform="matrix(0.13333333,0,0,-0.13333333,0,793.70667)"></path><path id="path2" d="M 4201.77,2646.27 H 3962.8 c -78.75,0 -142.59,-63.84 -142.59,-142.59 0,-78.75 63.84,-142.59 142.59,-142.59 h 238.97 c 78.76,0 142.59,63.84 142.59,142.59 0,78.75 -63.83,142.59 -142.59,142.59" style="fill:#0f1730;fill-opacity:1;fill-rule:nonzero;stroke:none" transform="matrix(0.13333333,0,0,-0.13333333,0,793.70667)"></path><path id="path3" d="m 4847.89,2358.05 c -78.75,0 -142.59,63.84 -142.59,142.58 v 957.27 c 0,78.75 63.84,142.59 142.59,142.59 78.75,0 142.58,-63.84 142.58,-142.59 v -957.27 c 0,-78.74 -63.83,-142.58 -142.58,-142.58" style="fill:#1afd6e;fill-opacity:1;fill-rule:nonzero;stroke:none" transform="matrix(0.13333333,0,0,-0.13333333,0,793.70667)"></path><path id="path4" d="m 5741.4,3009.87 c -70.7,34.7 -156.13,5.48 -190.81,-65.23 l -184.57,-381.19 c -34.68,-70.7 -5.47,-156.13 65.23,-190.8 20.19,-9.9 41.6,-14.6 62.68,-14.6 52.69,0 103.35,29.33 128.12,79.83 l 184.59,381.19 c 34.68,70.71 5.47,156.13 -65.24,190.8" style="fill:#ff009f;fill-opacity:1;fill-rule:nonzero;stroke:none" transform="matrix(0.13333333,0,0,-0.13333333,0,793.70667)"></path><path id="path5" d="m 6567.1,2563.45 -469.47,957.28 c -34.67,70.7 -120.1,99.92 -190.8,65.23 -70.7,-34.67 -99.91,-120.09 -65.24,-190.8 l 469.48,-957.28 c 24.77,-50.51 75.42,-79.83 128.12,-79.83 21.08,0 42.48,4.7 62.68,14.6 70.7,34.67 99.91,120.1 65.23,190.8" style="fill:#ff3040;fill-opacity:1;fill-rule:nonzero;stroke:none" transform="matrix(0.13333333,0,0,-0.13333333,0,793.70667)"></path><path id="path6" d="m 2227.18,3009.81 c -70.7,34.69 -156.13,5.47 -190.81,-65.24 l -184.58,-381.19 c -34.67,-70.7 -5.46,-156.13 65.24,-190.8 20.19,-9.9 41.6,-14.6 62.67,-14.6 52.7,0 103.36,29.34 128.13,79.83 L 2292.42,2819 c 34.67,70.71 5.47,156.13 -65.24,190.81" style="fill:#0f1730;fill-opacity:1;fill-rule:nonzero;stroke:none" transform="matrix(0.13333333,0,0,-0.13333333,0,793.70667)"></path><path id="path7" d="m 3052.88,2563.38 -469.47,957.28 c -34.67,70.7 -120.1,99.92 -190.8,65.23 -70.7,-34.67 -99.91,-120.09 -65.24,-190.8 l 469.48,-957.28 c 24.77,-50.5 75.42,-79.83 128.12,-79.83 21.08,0 42.48,4.7 62.67,14.6 70.71,34.67 99.92,120.1 65.24,190.8" style="fill:#0f1730;fill-opacity:1;fill-rule:nonzero;stroke:none" transform="matrix(0.13333333,0,0,-0.13333333,0,793.70667)"></path></g></svg>